Coordinates
version=1
nRows=11
nColumns=42
inDegrees=yes

Units are S.I. units (second, meters, Newtons, ...)
If the header above contains a line with 'inDegrees', this indicates whether rotational values are in degrees (yes) or radians (no).

endheader
time	pelvis_tilt	pelvis_list	pelvis_rotation	pelvis_tx	pelvis_ty	pelvis_tz	hip_flexion_r	hip_adduction_r	hip_rotation_r	knee_angle_r	knee_adduction_r	knee_angle_r_beta	ankle_angle_r	subtalar_angle_r	mtp_angle_r	hip_flexion_l	hip_adduction_l	hip_rotation_l	knee_angle_l	knee_adduction_l	knee_angle_l_beta	ankle_angle_l	subtalar_angle_l	mtp_angle_l	lumbar_extension	lumbar_bending	lumbar_rotation	arm_flex_r	arm_add_r	arm_rot_r	elbow_flex_r	pro_sup_r	wrist_flex_r	wrist_dev_r	arm_flex_l	arm_add_l	arm_rot_l	elbow_flex_l	pro_sup_l	wrist_flex_l	wrist_dev_l
      0.73000000	      1.78777376	     -1.12335136	     -3.41385848	     -1.40331695	      0.95729697	      0.34246457	    -15.41490679	      0.74322815	     -2.93237813	      2.62959703	      4.76629476	      0.04589513	     16.90458682	     14.47326896	     -7.82754329	     19.54505225	     -3.91286745	    -15.96977385	      6.46502941	      0.62899262	      0.11283605	      3.15664708	     15.26394326	     -7.82754329	     -8.68376925	      2.43492555	      4.52916332	      5.76799209	    -18.31169612	      9.84804124	     38.75317855	     90.00000001	      0.00000000	      0.00000000	    -14.33073896	    -12.43140139	      9.49724405	     30.31328320	     90.00000001	      0.00000000	      0.00000000
      0.74000000	      1.62917070	     -1.29370339	     -3.47955004	     -1.39368896	      0.95558672	      0.34262843	    -15.81176451	      0.95686007	     -2.76672295	      2.77452337	      4.64521257	      0.04842457	     17.12414758	     14.30238753	     -7.82448770	     19.70322258	     -4.01379430	    -16.17429518	      5.33060947	      0.73561438	      0.09303669	      3.04415570	     16.46575714	     -7.82448770	     -8.56669569	      2.43108882	      4.62164366	      5.99256940	    -18.36575262	     10.29720085	     38.67009685	     90.00000001	      0.00000000	      0.00000000	    -14.44415711	    -12.42762661	      9.30663411	     30.23076566	     90.00000001	      0.00000000	      0.00000000
      0.75000000	      1.75305893	     -1.34892196	     -3.68742021	     -1.38365885	      0.95425412	      0.34254336	    -16.59542355	      0.88550767	     -2.31666080	      2.78360795	      4.69272180	      0.04858312	     17.17469185	     13.76436294	     -7.80678521	     19.76901469	     -4.03807235	    -17.60029628	      5.02246227	      0.61156062	      0.08765850	      3.32541958	     19.09352707	     -7.80678521	     -8.74069261	      2.31007504	      4.75070948	      6.23591778	    -18.65407889	     11.74291740	     38.69252396	     90.00000001	      0.00000000	      0.00000000	    -14.54138346	    -12.17564480	      8.36054356	     30.07584863	     90.00000001	      0.00000000	      0.00000000
      0.76000000	      1.60375771	     -1.50496175	     -3.79939268	     -1.37376204	      0.95275263	      0.34266005	    -16.97832727	      1.03502031	     -2.14560869	      2.99826685	      4.58813810	      0.05232963	     17.31457675	     13.73031904	     -7.80325149	     19.94645055	     -4.12676834	    -17.63689559	      4.71943930	      0.61596809	      0.08236975	      3.25036892	     19.52464766	     -7.80325149	     -8.62766883	      2.28213402	      4.88638403	      6.36765297	    -18.58041256	     11.87654849	     38.53392467	     90.00000001	      0.00000000	      0.00000000	    -14.58496204	    -12.18265062	      8.31100452	     29.96684092	     90.00000001	      0.00000000	      0.00000000
      0.77000000	      1.45517621	     -1.60157738	     -3.88771845	     -1.36366646	      0.95132332	      0.34258253	    -17.34109513	      1.05443816	     -2.11454189	      3.28314621	      4.59034356	      0.05730171	     17.29828163	     13.71851673	     -7.80226648	     20.15625429	     -4.13444206	    -17.56276433	      4.84581122	      0.57162172	      0.08457536	      3.21611918	     19.50702497	     -7.80226648	     -8.49586712	      2.20173298	      4.98512806	      6.37218314	    -18.51791611	     11.91307249	     38.55216425	     90.00000001	      0.00000000	      0.00000000	    -14.64099820	    -12.20750936	      8.29439115	     29.96177397	     90.00000001	      0.00000000	      0.00000000
      0.78000000	      1.32186561	     -1.68233183	     -4.04939084	     -1.35318672	      0.95005135	      0.34259504	    -17.72624016	      1.03311307	     -2.02647648	      3.58820268	      4.56004864	      0.06262595	     17.28766640	     13.72272523	     -7.80121520	     20.23547086	     -4.12789985	    -17.39155437	      5.10016872	      0.45541768	      0.08901474	      3.11669125	     19.49614533	     -7.80121520	     -8.34670495	      2.08565404	      5.12685627	      6.28839223	    -18.42337173	     11.99249329	     38.50372472	     90.00000001	      0.00000000	      0.00000000	    -14.73177694	    -12.22795993	      8.27461065	     29.91120856	     90.00000001	      0.00000000	      0.00000000
      0.79000000	      1.55415932	     -1.54959782	     -4.41206445	     -1.34285908	      0.94942211	      0.34252557	    -18.47352209	      0.66569459	     -1.60814509	      3.86120239	      4.52615811	      0.06739069	     17.41116343	     13.87538131	     -7.79774492	     19.97313065	     -3.89461631	    -17.63635789	      5.72287342	      0.17592505	      0.09988298	      2.51205444	     19.16377674	     -7.79774492	     -8.63459121	      1.69011744	      5.43758686	      6.43904856	    -18.39158104	     12.52763279	     38.08973303	     90.00000001	      0.00000000	      0.00000000	    -14.49917272	    -12.18123947	      8.18738325	     29.44808880	     90.00000001	      0.00000000	      0.00000000
      0.80000000	      1.63292011	     -1.39641879	     -4.71903312	     -1.33216375	      0.94877564	      0.34235431	    -19.01180972	      0.25459082	     -1.34233457	      4.24759606	      4.57055788	      0.07413454	     17.24986827	     13.96290865	     -7.79481563	     19.74392369	     -3.64217118	    -17.57019368	      6.30627527	     -0.01744647	      0.11006527	      1.99551021	     18.85728365	     -7.79481563	     -8.71120389	      1.28969216	      5.70838336	      6.32728666	    -18.34542227	     12.83728065	     37.98284150	     90.00000001	      0.00000000	      0.00000000	    -14.41023554	    -12.18439270	      8.07119980	     29.27705498	     90.00000001	      0.00000000	      0.00000000
      0.81000000	      2.09086611	     -0.81434147	     -5.17690342	     -1.32087623	      0.94881330	      0.34188223	    -19.94580723	     -0.83577252	     -1.16192865	      4.62956128	      4.82231618	      0.08080109	     17.12533465	     14.14812629	     -7.78111588	     18.77797486	     -2.81011610	    -17.40137168	      6.38340014	     -0.27321016	      0.11141135	      0.86684761	     17.65147904	     -7.78111588	     -9.11284435	      0.38906048	      5.98099649	      6.17629416	    -18.34869714	     13.52303238	     37.89739693	     90.00000001	      0.00000000	      0.00000000	    -14.26931100	    -12.08401562	      7.56919442	     28.92264948	     90.00000001	      0.00000000	      0.00000000
      0.82000000	      2.10568947	     -0.63656183	     -5.43266487	     -1.31003094	      0.94866252	      0.34158838	    -20.26692423	     -1.27429526	     -0.97383006	      5.27479468	      4.86739297	      0.09206253	     16.74976054	     14.14735811	     -7.77703333	     18.55989684	     -2.52708078	    -17.31535566	      7.00897687	     -0.48894789	      0.12232972	     -0.11813727	     17.06210790	     -7.77703333	     -9.10560668	     -0.03728977	      6.15505053	      5.96726138	    -18.19860314	     13.59000038	     37.70010696	     90.00000001	      0.00000000	      0.00000000	    -14.08882326	    -12.09506487	      7.58773092	     28.60938981	     90.00000001	      0.00000000	      0.00000000
      0.83000000	      2.21266569	     -0.20657280	     -5.76521125	     -1.29899455	      0.94899355	      0.34111852	    -20.55639505	     -2.07734119	     -0.84272038	      6.11075832	      5.00662128	      0.10665285	     16.32813091	     14.08506640	     -7.77141298	     18.04975382	     -1.95042915	    -17.13472645	      7.29167051	     -0.65606296	      0.12726366	     -1.28629542	     16.16514910	     -7.77141298	     -9.16523616	     -0.74371628	      6.36986242	      5.66985854	    -18.00369920	     13.58642943	     37.48023588	     90.00000001	      0.00000000	      0.00000000	    -13.82913776	    -12.09971774	      7.59469489	     28.23040307	     90.00000001	      0.00000000	      0.00000000
